<?xml version="1.0" encoding="UTF-8" standalone="no"?>
<!-- Created with Inkscape (http://www.inkscape.org/) -->

<svg
   width="210mm"
   height="297mm"
   viewBox="0 0 210 297"
   version="1.1"
   id="svg5"
   inkscape:version="1.2.2 (732a01da63, 2022-12-09)"
   sodipodi:docname="extend.svg"
   xmlns:inkscape="http://www.inkscape.org/namespaces/inkscape"
   xmlns:sodipodi="http://sodipodi.sourceforge.net/DTD/sodipodi-0.dtd"
   xmlns="http://www.w3.org/2000/svg"
   xmlns:svg="http://www.w3.org/2000/svg">
  <sodipodi:namedview
     id="namedview7"
     pagecolor="#ffffff"
     bordercolor="#000000"
     borderopacity="0.25"
     inkscape:showpageshadow="2"
     inkscape:pageopacity="0.0"
     inkscape:pagecheckerboard="0"
     inkscape:deskcolor="#d1d1d1"
     inkscape:document-units="mm"
     showgrid="false"
     inkscape:zoom="0.3632639"
     inkscape:cx="568.45726"
     inkscape:cy="660.67671"
     inkscape:window-width="1366"
     inkscape:window-height="705"
     inkscape:window-x="-8"
     inkscape:window-y="-8"
     inkscape:window-maximized="1"
     inkscape:current-layer="layer1" />
  <defs
     id="defs2" />
  <g
     inkscape:label="Layer 1"
     inkscape:groupmode="layer"
     id="layer1">
    <path
       id="rect234"
       style="fill:#3db39e;fill-opacity:1;stroke-width:0.187501"
       d="m 17.29517,202.00588 a 3.2127679,2.6624364 44.9991 0 0 2.907488,1.02548 l 18.612198,-3.32696 18.610441,-3.32695 a 3.2127679,2.6624364 44.9991 0 0 0.857397,-4.79035 l -7.275738,-7.2757 c 0.02414,-0.0233 0.04898,-0.0454 0.07279,-0.0693 l 25.713701,-25.71355 c 2.056882,-2.05687 2.056594,-5.3685 -2.88e-4,-7.42537 l -8.595593,-8.59555 c -2.056882,-2.05686 -5.36824,-2.05686 -7.425121,0 l -25.713706,25.71356 c -0.02381,0.0238 -0.04602,0.0486 -0.06928,0.0728 l -7.275445,-7.2754 a 3.2127679,2.6624364 44.9991 0 0 -4.79125,0.85651 l -3.326977,18.61034 -3.326978,18.61208 a 3.2127679,2.6624364 44.9991 0 0 1.026361,2.90835 z" />
    <path
       id="path3209"
       style="fill:#3db39e;fill-opacity:1;stroke-width:0.187501"
       d="m 172.58905,202.00481 a 2.6624364,3.2127679 44.999101 0 0 1.02548,-2.90749 l -3.32696,-18.61219 -3.32695,-18.61045 a 2.6624364,3.2127679 44.999101 0 0 -4.79034,-0.85739 l -7.2757,7.27574 c -0.0233,-0.0242 -0.0454,-0.049 -0.0693,-0.0728 l -25.71356,-25.71371 c -2.05687,-2.05688 -5.36849,-2.05659 -7.42536,2.9e-4 l -8.59556,8.5956 c -2.05686,2.05687 -2.05686,5.36823 0,7.42511 l 25.71357,25.71371 c 0.0238,0.0238 0.0486,0.046 0.0728,0.0693 l -7.27541,7.27545 a 2.6624364,3.2127679 44.999101 0 0 0.85651,4.79125 l 18.61034,3.32698 18.6121,3.32697 a 2.6624364,3.2127679 44.999101 0 0 2.90834,-1.02636 z" />
    <path
       id="path3211"
       style="fill:#3db39e;fill-opacity:1;stroke-width:0.187501"
       d="m 17.294655,46.711799 a 2.6624359,3.2127674 44.999139 0 0 -1.025479,2.907489 l 3.32696,18.612191 3.32696,18.610434 a 2.6624359,3.2127674 44.999139 0 0 4.79034,0.857401 l 7.275696,-7.275736 c 0.02326,0.02416 0.04547,0.04896 0.06928,0.0728 l 25.713557,25.713702 c 2.05687,2.05688 5.368499,2.05659 7.425369,-2.9e-4 l 8.595544,-8.595604 c 2.05687,-2.056882 2.05687,-5.368241 0,-7.425122 l -25.713556,-25.7137 c -0.02381,-0.02381 -0.04865,-0.04602 -0.07279,-0.06928 l 7.275402,-7.275442 A 2.6624359,3.2127674 44.999139 0 0 57.425425,52.339393 L 38.815088,49.012418 20.203002,45.68544 a 2.6624359,3.2127674 44.999139 0 0 -2.908349,1.026361 z" />
    <path
       id="path3213"
       style="fill:#3db39e;fill-opacity:1;stroke-width:0.187501"
       d="m 172.58881,46.711285 a 3.2127677,2.6624362 44.999059 0 0 -2.90749,-1.02548 l -18.6122,3.32696 -18.61045,3.326959 a 3.2127677,2.6624362 44.999059 0 0 -0.8574,4.79034 l 7.27574,7.275695 c -0.0242,0.02326 -0.049,0.04547 -0.0728,0.06928 l -25.7137,25.713564 c -2.05687,2.056869 -2.05658,5.368497 3e-4,7.425367 l 8.59559,8.59554 c 2.05688,2.05687 5.36824,2.05687 7.42512,0 l 25.71371,-25.713555 c 0.0238,-0.02384 0.046,-0.04864 0.0693,-0.0728 l 7.27545,7.275407 a 3.2127677,2.6624362 44.999059 0 0 4.79125,-0.856511 l 3.32697,-18.610343 3.32698,-18.612085 a 3.2127677,2.6624362 44.999059 0 0 -1.02636,-2.908348 z" />
  </g>
</svg>
