<?xml version="1.0" encoding="iso-8859-1"?>
<!-- Generator: Adobe Illustrator 19.0.0, SVG Export Plug-In . SVG Version: 6.00 Build 0)  -->
<svg version="1.1" id="Capa_1" xmlns="http://www.w3.org/2000/svg" xmlns:xlink="http://www.w3.org/1999/xlink" x="0px" y="0px"
	 viewBox="0 0 512.049 512.049" style="enable-background:new 0 0 512.049 512.049;" xml:space="preserve">
<path style="fill:#CFD8DC;" d="M510.266,4.855c-2.053-3.202-5.675-5.045-9.472-4.821c-59.397,7.72-117.708,22.251-173.781,43.307
	c-2.545,0.942-4.635,2.819-5.845,5.248l-14.699,29.419l-10.88-10.859c-3.299-3.291-8.352-4.06-12.48-1.899
	c-31.521,15.354-61.254,34.134-88.661,56c-8.967,14.776-15.014,31.136-17.813,48.192l-7.083-14.187
	c-2.636-5.268-9.044-7.402-14.312-4.766c-0.817,0.409-1.577,0.92-2.264,1.523c-4.267,3.691-102.187,91.477-56.021,193.728
	c9.738,23.845,33.427,38.983,59.157,37.803c1.259,0,2.517,0,3.819,0c82.048-3.456,210.304-118.656,223.488-155.904
	c1.953-5.558-0.969-11.647-6.526-13.6c-0.316-0.111-0.637-0.207-0.962-0.288l-35.584-8.917l77.419-12.8
	c3.368-0.563,6.263-2.704,7.787-5.76l85.333-170.667C512.635,12.174,512.399,8.064,510.266,4.855z"/>
<path style="fill:#607D8B;" d="M10.682,512.034C4.791,512.042,0.008,507.273,0,501.382c-0.003-1.844,0.473-3.658,1.38-5.263
	C94.671,331.17,168.335,200.908,357.967,107.788c5.302-2.598,11.706-0.406,14.304,4.896c2.598,5.302,0.406,11.706-4.896,14.304
	c-183.744,90.197-256,217.941-347.413,379.733C18.043,510.027,14.503,512.053,10.682,512.034z"/>
<g>
</g>
<g>
</g>
<g>
</g>
<g>
</g>
<g>
</g>
<g>
</g>
<g>
</g>
<g>
</g>
<g>
</g>
<g>
</g>
<g>
</g>
<g>
</g>
<g>
</g>
<g>
</g>
<g>
</g>
</svg>
